<?xml version="1.0" encoding="utf-8"?>
<!-- Generator: Adobe Illustrator 17.0.0, SVG Export Plug-In . SVG Version: 6.00 Build 0)  -->
<!DOCTYPE svg PUBLIC "-//W3C//DTD SVG 1.1//EN" "http://www.w3.org/Graphics/SVG/1.1/DTD/svg11.dtd">
<svg version="1.1" id="Layer_1" xmlns="http://www.w3.org/2000/svg" xmlns:xlink="http://www.w3.org/1999/xlink" x="0px" y="0px"
	 width="131.123px" height="144.272px" viewBox="36 7.728 131.123 144.272" enable-background="new 36 7.728 131.123 144.272"
	 xml:space="preserve">
<path fill="#7AD652" d="M167.122,136.914l-7.733-4.742c-0.245-2.01-1.038-3.899-2.301-5.483l1.936-8.88l-6.989-2.856l-4.742,7.733
	c-2.01,0.245-3.899,1.038-5.483,2.301l-8.88-1.936l-2.856,6.989l7.733,4.742c0.245,2.01,1.038,3.899,2.301,5.483l-1.936,8.88
	l6.99,2.856l4.742-7.733c2.01-0.245,3.899-1.038,5.483-2.301l8.88,1.936L167.122,136.914z M146.608,138.349
	c-2.693-1.101-3.982-4.173-2.882-6.866c1.099-2.69,4.171-3.979,6.864-2.88c2.691,1.099,3.981,4.171,2.88,6.862
	C152.37,138.158,149.298,139.448,146.608,138.349z"/>
<path fill="#7AD652" d="M157.157,85.282c0.962-1.934,1.528-4.045,1.666-6.248l0.03,0.117l8.27-3.845l-1.954-7.291l-9.058,0.906
	l0.03,0.117c-1.219-1.84-2.766-3.384-4.566-4.578l0.099,0.027l0.805-9.085l-7.291-1.954l-3.734,8.275
	c-1.038,0.072-2.085,0.229-3.126,0.509c-1.043,0.28-2.027,0.666-2.963,1.123l-1.04-0.73c-2.16,2.864-4.88,4.936-7.782,6.35
	l1.354,1.883l0.074-0.074c-0.962,1.934-1.53,4.045-1.666,6.25l-0.032-0.117l-8.27,3.845l1.954,7.291l9.058-0.906l-0.032-0.117
	c1.221,1.84,2.766,3.386,4.566,4.579l-0.099-0.027l-0.805,9.085l7.293,1.954l3.734-8.274c1.038-0.072,2.083-0.229,3.126-0.509
	c1.043-0.28,2.027-0.666,2.963-1.123l7.445,5.226l5.338-5.338l-5.314-7.39L157.157,85.282z M144.608,85.658
	c-4.214,1.13-8.542-1.37-9.67-5.584c-1.128-4.211,1.371-8.539,5.584-9.669c4.211-1.128,8.539,1.371,9.667,5.582
	C151.317,80.2,148.819,84.53,144.608,85.658z"/>
<path fill="#7AD652" d="M36,17.592c8.634,16.966-0.995,31.946,9.779,62.854c7.272,20.861,33.906,17.414,35.874,11.387
	c1.266-2.218,2.37-5.162,1.126-9.637c-2.971-10.699-9.53-28.238-23.874-45.285c25.077,23.053,31.083,47.941,32.066,51.946
	c0.024-0.002,1.088,4.165,1.056,4.011c5.974,28.714-0.075,50.683-0.963,53.435c-1.202,3.722,4.173,5.907,6.784,1.582
	c3.23-6.709-2.286-49.013-2.526-54.867c-0.022-0.587-0.422-3.126-0.482-4.181c-0.288-0.09,7.613-2.208,9.979-8.576
	C108.632,70.011,96.91,32.558,36,17.592z"/>
<path fill="#7AD652" d="M86.606,139.413l1.395-0.976c1.614-8.522,3.435-24.842-0.674-44.587c-0.008-0.04-0.016-0.082-0.024-0.122
	c-0.099-0.317-0.173-0.605-0.235-0.842c-0.062-0.243-0.131-0.506-0.198-0.77c-0.272,0.643-0.566,1.226-0.854,1.752
	c-0.718,1.746-2.04,3.128-3.71,4.205l4.211,6.022c-1.115,1.851-1.965,3.869-2.504,6.029l-8.872,1.475v7.549l8.862,1.57
	c0.534,2.157,1.386,4.178,2.507,6.032l-5.24,7.323L86.606,139.413z"/>
<path fill="#7AD652" d="M138.032,7.728c-27.392,8.283-40.47,22.216-45.666,33.314c4.638,4.533,7.99,8.912,10.398,12.714
	c2.562-7.68,7.96-19.467,19.275-31.027c-7.619,10.088-13.146,27.531-15.549,37.92c0.584,1.291,1.12,2.578,1.571,3.851
	c3.622,3.715,21.011,4.106,25.245-10.467C139.989,31.032,132.376,20.458,138.032,7.728z"/>
<path fill="#7AD652" d="M124.075,104.171l5.237-7.466l-5.338-5.334l-7.365,5.299c-1.84-1.115-3.851-1.962-5.994-2.493l-1.566-8.941
	h-1.443c-1.648,2.448-4.029,4.531-7.125,6.232l-0.325,1.995c0.112,1.565,0.429,4.654,0.787,8.165
	c0.142,1.392,0.277,2.733,0.41,4.066c1.229-0.502,2.573-0.784,3.982-0.784c5.813,0,10.525,4.712,10.525,10.525
	c0,5.816-4.712,10.53-10.525,10.53c-0.763,0-1.506-0.085-2.222-0.24c0.621,8.942,0.738,15.558,0.165,19.907h5.768l1.587-8.941
	c2.133-0.538,4.146-1.389,5.976-2.504l7.448,5.229l5.338-5.341l-5.317-7.382c1.101-1.837,1.938-3.837,2.462-5.97l8.982-1.573v-7.549
	l-8.982-1.469C126.013,108.005,125.179,106.005,124.075,104.171z"/>
<text transform="matrix(1 0 0 1 19.9997 184.0002)" fill="#7AD652" font-family="'Arial-BoldMT'" font-size="8">Created by Attilio Baghino</text>
<text transform="matrix(1 0 0 1 19.9997 192.0002)" fill="#7AD652" font-family="'Arial-BoldMT'" font-size="8">from the Noun Project</text>
</svg>
