<?xml version="1.0" encoding="utf-8"?>
<!-- Generator: Adobe Illustrator 17.0.0, SVG Export Plug-In . SVG Version: 6.00 Build 0)  -->
<!DOCTYPE svg PUBLIC "-//W3C//DTD SVG 1.1//EN" "http://www.w3.org/Graphics/SVG/1.1/DTD/svg11.dtd">
<svg version="1.1" id="Layer_1" xmlns="http://www.w3.org/2000/svg" xmlns:xlink="http://www.w3.org/1999/xlink" x="0px" y="0px"
	 width="141.12px" height="141.12px" viewBox="29.44 9.44 141.12 141.12" enable-background="new 29.44 9.44 141.12 141.12"
	 xml:space="preserve">
<g>
	<path fill="#7AD652" d="M100,9.44C61.12,9.44,29.44,41.12,29.44,80s31.68,70.56,70.56,70.56s70.56-31.68,70.56-70.56
		S138.88,9.44,100,9.44z M100,140.96c-33.6,0-60.96-27.36-60.96-60.96S66.4,19.04,100,19.04S160.96,46.4,160.96,80
		S133.6,140.96,100,140.96z"/>
	<path fill="#7AD652" d="M115.52,75.04h-12.16c-0.96,0-1.28-0.96-0.96-1.28l10.88-23.36c0.48-0.48-0.48-1.28-0.96-1.28H92.48
		c-0.48,0-0.96,0.48-0.96,0.96l-8.16,36c0,0.96,0.48,1.28,0.96,1.28H95.2c0.48,0,0.96,0.48,0.96,0.96l-2.88,24.8
		c-0.16,1.44,1.76,1.92,2.4,0.8l20.8-37.28C116.8,76,116.32,75.04,115.52,75.04z"/>
</g>
<text transform="matrix(1 0 0 1 19.9997 184.0002)" font-family="'Arial-BoldMT'" font-size="8">Created by Adrien Coquet</text>
<text transform="matrix(1 0 0 1 19.9997 192.0002)" font-family="'Arial-BoldMT'" font-size="8">from the Noun Project</text>
</svg>
