<?xml version="1.0" encoding="utf-8"?>
<!-- Generator: Adobe Illustrator 17.0.0, SVG Export Plug-In . SVG Version: 6.00 Build 0)  -->
<!DOCTYPE svg PUBLIC "-//W3C//DTD SVG 1.1//EN" "http://www.w3.org/Graphics/SVG/1.1/DTD/svg11.dtd">
<svg version="1.1" id="Layer_1" xmlns="http://www.w3.org/2000/svg" xmlns:xlink="http://www.w3.org/1999/xlink" x="0px" y="0px"
	 width="120px" height="138.775px" viewBox="40 10.65 120 138.775" enable-background="new 40 10.65 120 138.775"
	 xml:space="preserve">
<title>Plant protection</title>
<g>
	<path fill="#7AD652" d="M160,81.525V32.5c0.034-2.271-1.415-4.298-3.575-5l-52.2-16.85c-2.746-0.894-5.704-0.894-8.45,0
		l-52.2,17.025C41.477,28.357,40.041,30.294,40,32.5v49.025c-0.018,18.383,7.287,36.016,20.3,49c1.551,1.514,4.036,1.484,5.55-0.068
		c0.353-0.362,0.633-0.789,0.825-1.257c1.575-3.9,3-7.225,3.925-9.025c3.797-7.448,8.363-14.478,13.625-20.975
		c2.617-3.26,5.457-6.334,8.5-9.2l8.05-7.05l-6.2,2.5c-6.12,2.412-11.59,6.222-15.975,11.125l-5,5.7
		c-0.706,0.795-1.923,0.866-2.718,0.16c-0.351-0.312-0.576-0.743-0.632-1.21C68.895,89.505,73.324,77.858,82.125,70
		c4.27-3.565,9.284-6.128,14.675-7.5c2.381-0.613,4.819-0.982,7.275-1.1l23.75-1.35c1.131-0.054,2.091,0.82,2.145,1.95
		c0.016,0.336-0.051,0.671-0.195,0.975l-0.975,2c-2.141,4.499-3.26,9.417-3.275,14.4c-0.103,9.265-3.619,18.166-9.875,25
		c-4.803,5.123-11.135,8.552-18.05,9.775l-8.05,1.5c-4.659,0.866-8.537,4.082-10.25,8.5c-0.425,1.1-1.075,3.05-1.85,5.475
		c-2.253,7.134,1.534,14.773,8.575,17.3c3.013,1.047,6.095,1.883,9.225,2.5c3.116,0.65,6.334,0.65,9.45,0
		C136.862,142.702,159.927,114.382,160,81.525z M54.675,41.525l-1.55,0.5c-0.257,0.04-0.518,0.04-0.775,0
		c-1.381,0.214-2.673-0.732-2.887-2.112c-0.214-1.381,0.732-2.673,2.112-2.888l1.55-0.5c1.296-0.477,2.733,0.186,3.21,1.482
		c0.477,1.296-0.186,2.733-1.482,3.21c-0.059,0.022-0.118,0.041-0.178,0.058V41.525z M98.2,27.35L65.7,37.925
		c-0.257,0.04-0.518,0.04-0.775,0c-1.381,0.214-2.673-0.732-2.888-2.112c-0.214-1.381,0.732-2.673,2.113-2.888L96.65,22.5
		c1.328-0.379,2.711,0.39,3.09,1.718c0.359,1.258-0.313,2.58-1.54,3.032V27.35z"/>
</g>
<text transform="matrix(1 0 0 1 20.0001 197.5)" font-family="'Arial-BoldMT'" font-size="12.5">Created by Roundicons.com</text>
<text transform="matrix(1 0 0 1 20.0001 210)" font-family="'Arial-BoldMT'" font-size="12.5">from the Noun Project</text>
</svg>
