<?xml version="1.0" encoding="utf-8"?>
<!-- Generator: Adobe Illustrator 17.0.0, SVG Export Plug-In . SVG Version: 6.00 Build 0)  -->
<!DOCTYPE svg PUBLIC "-//W3C//DTD SVG 1.1//EN" "http://www.w3.org/Graphics/SVG/1.1/DTD/svg11.dtd">
<svg version="1.1" id="Layer_1" xmlns="http://www.w3.org/2000/svg" xmlns:xlink="http://www.w3.org/1999/xlink" x="0px" y="0px"
	 width="778px" height="210.718px" viewBox="0 0 778 210.718" enable-background="new 0 0 778 210.718" xml:space="preserve">
<g>
	<defs>
		<rect id="SVGID_1_" x="-87.399" y="-31.865" width="966.26" height="277.543"/>
	</defs>
	<clipPath id="SVGID_2_">
		<use xlink:href="#SVGID_1_"  overflow="visible"/>
	</clipPath>
	<g clip-path="url(#SVGID_2_)">
		<defs>
			<path id="SVGID_9_" d="M62.59,17.769c29.94-0.551,650.498,22.502,650.498,22.502s85.915,2.046,58.299,73.641
				s-37.843,85.915-94.097,85.915s-596.594,9.966-606.518,9.205s-27.3-3.288-36.821-29.661S11.054,108.548,4.291,74.023
				S14.762,18.059,62.59,17.769z"/>
		</defs>
		<clipPath id="SVGID_3_">
			<use xlink:href="#SVGID_9_"  overflow="visible"/>
		</clipPath>
		<g clip-path="url(#SVGID_3_)">
			<defs>
				<path id="SVGID_6_" d="M858.536-17.009c-64.442-177.86-233.924-304.81-433.694-304.81
					c-254.544,0-460.758,206.214-460.758,460.76c0,254.544,206.214,460.758,460.758,460.758
					c184.949,0,344.12-108.906,417.583-266.145C816.649,294.244,837.271-51.807,858.536-17.009z"/>
			</defs>
			<clipPath id="SVGID_4_">
				<use xlink:href="#SVGID_6_"  overflow="visible"/>
			</clipPath>
			
				<rect x="-53.243" y="-663.203" clip-path="url(#SVGID_4_)" fill-rule="evenodd" clip-rule="evenodd" fill="#2BAD4A" width="947.294" height="1295.286"/>
			<path clip-path="url(#SVGID_4_)" fill="#3FB349" d="M318.323-663.198L-53.243-319.982v952.065h947.294V579.78
				C540.046,47.672,386.979-366.656,434.826-663.198H318.323z"/>
			<path clip-path="url(#SVGID_4_)" fill="#69BD45" d="M107.579-663.198l-160.822,77.542V528.027
				c41.972,36.474,82.285,71.144,121.003,104.055h491.717c-256.562-499.392-300.008-931.1-130.359-1295.28H107.579z"/>
			<path clip-path="url(#SVGID_4_)" fill="#7EC242" d="M31.299-663.198l-84.542,45.283v993.821
				c75.598,97.822,142.583,183.24,200.911,256.177h142.403c-207.528-441.762-163.83-873.49,131.145-1295.28H31.299z"/>
		</g>
	</g>
	<circle clip-path="url(#SVGID_2_)" fill="#FFFFFF" cx="388.047" cy="30.114" r="30.114"/>
	<g clip-path="url(#SVGID_2_)">
		<defs>
			<path id="SVGID_5_" d="M387.173,20.194c0,0,15.457,5.24,24.059,15.852c0.428-1.615,0.725-3.263,0.791-5.009
				C401.938,19.667,387.173,20.194,387.173,20.194z M391.721,36.277c-6.526-4.548-5.866-14.666-15.16-19.61
				c-2.142-1.153,18.192-5.998,28.936,0.264c2.472,1.45,4.12,3.164,5.207,4.944c-3.296-9.096-11.963-15.589-22.18-15.589
				c-13.018,0-23.564,10.546-23.564,23.564c0,13.018,10.546,23.564,23.564,23.564c9.459,0,17.599-5.57,21.356-13.611
				c-1.318-2.01-2.439-3.263-2.439-3.263C403.487,37.991,396.566,39.738,391.721,36.277z"/>
		</defs>
		<clipPath id="SVGID_7_">
			<use xlink:href="#SVGID_5_"  overflow="visible"/>
		</clipPath>
		
			<rect x="364.073" y="-11.173" clip-path="url(#SVGID_7_)" fill-rule="evenodd" clip-rule="evenodd" fill="#2BAD4A" width="48.447" height="66.244"/>
		<path clip-path="url(#SVGID_7_)" fill="#3FB349" d="M383.076-11.173L364.073,6.38v48.691h48.447v-2.675
			c-18.105-27.213-25.933-48.403-23.486-63.569H383.076z"/>
		<path clip-path="url(#SVGID_7_)" fill="#69BD45" d="M372.298-11.173l-8.225,3.966V49.75c2.147,1.865,4.208,3.639,6.188,5.322
			h25.148c-13.121-25.54-15.343-47.619-6.667-66.244H372.298z"/>
		<path clip-path="url(#SVGID_7_)" fill="#7EC242" d="M368.397-11.173l-4.324,2.316V41.97c3.866,5.003,7.292,9.371,10.275,13.102
			h7.283c-10.614-22.593-8.379-44.673,6.707-66.244H368.397z"/>
	</g>
</g>
</svg>
