<?xml version="1.0" encoding="utf-8"?>
<!-- Generator: Adobe Illustrator 17.0.0, SVG Export Plug-In . SVG Version: 6.00 Build 0)  -->
<!DOCTYPE svg PUBLIC "-//W3C//DTD SVG 1.1//EN" "http://www.w3.org/Graphics/SVG/1.1/DTD/svg11.dtd">
<svg version="1.1" id="Layer_1" xmlns="http://www.w3.org/2000/svg" xmlns:xlink="http://www.w3.org/1999/xlink" x="0px" y="0px"
	 width="144px" height="108.621px" viewBox="28 25.6 144 108.621" enable-background="new 28 25.6 144 108.621"
	 xml:space="preserve">
<title>i18 copy 2</title>
<desc>Created with Sketch.</desc>
<g>
	<path fill="#7AD652" d="M121.647,106.113L83.579,74.52c-4.476-4.157-11.276,1.3-8.185,6.571l22.611,44.001
		c0.898,1.533,1.955,2.957,3.144,4.245c12.577,13.626,34.545-4.009,23.962-19.236C124.111,108.663,122.95,107.324,121.647,106.113
		 M172,97.598v0.058c-0.004,3.167-2.634,5.704-5.8,5.704h-16.972c-3.247,0-5.883-2.625-5.893-5.872l-0.002-0.169
		c-0.011-3.254,2.622-5.897,5.875-5.897h10.121c-1.223-11.822-5.916-22.627-13.037-31.385l-6.911,6.913
		c-2.322,2.322-6.121,2.322-8.443,0l-0.189-0.189c-2.377-2.378-2.377-6.267,0-8.646l6.811-6.811
		c-8.759-7.119-19.562-11.814-31.385-13.035v9.909c0,3.368-2.73,6.098-6.098,6.098h-0.173c-3.358,0-6.08-2.722-6.08-6.078V38.27
		c-11.823,1.221-22.627,5.916-31.385,13.037l6.809,6.809c2.378,2.378,2.378,6.269,0.002,8.646l-0.088,0.088
		c-2.377,2.377-6.267,2.377-8.646,0l-6.809-6.811c-7.119,8.758-11.814,19.562-13.035,31.383h10.099c3.264,0,5.905,2.652,5.895,5.916
		l-0.002,0.168c-0.011,3.238-2.638,5.854-5.875,5.854H33.8c-3.165,0-5.796-2.537-5.8-5.704v-0.058C28,57.897,60.299,25.6,100,25.6
		S172,57.897,172,97.598"/>
</g>
<text transform="matrix(1 0 0 1 19.9997 184.0002)" font-family="'Arial-BoldMT'" font-size="8">Created by Icon Island</text>
<text transform="matrix(1 0 0 1 19.9997 192.0002)" font-family="'Arial-BoldMT'" font-size="8">from the Noun Project</text>
</svg>
