<?xml version="1.0" encoding="utf-8"?>
<!-- Generator: Adobe Illustrator 17.0.0, SVG Export Plug-In . SVG Version: 6.00 Build 0)  -->
<!DOCTYPE svg PUBLIC "-//W3C//DTD SVG 1.1//EN" "http://www.w3.org/Graphics/SVG/1.1/DTD/svg11.dtd">
<svg version="1.1" id="Layer_1" xmlns="http://www.w3.org/2000/svg" xmlns:xlink="http://www.w3.org/1999/xlink" x="0px" y="0px"
	 width="90px" height="137.222px" viewBox="55 11.39 90 137.222" enable-background="new 55 11.39 90 137.222" xml:space="preserve"
	>
<g>
	<polygon fill="#7AD652" points="131.278,49.339 111.594,49.339 103.75,49.339 103.699,49.339 115.941,11.39 68.722,67.979 
		90.739,67.979 98.706,67.979 98.754,67.979 86.512,105.928 	"/>
	<path fill="#7AD652" d="M145,104.581c0-2.822-2.288-5.106-5.109-5.106c-1.194,0-2.288,0.413-3.16,1.098l0,0l-0.056,0.043
		c-0.016,0.013-0.032,0.026-0.043,0.034l-20.56,16.298c1.144,1.416,1.834,3.213,1.834,5.168c0,4.541-3.693,8.232-8.234,8.232H86.456
		c-0.84,0-1.522-0.682-1.522-1.522c0-0.838,0.682-1.522,1.522-1.522h23.219c2.862,0,5.187-2.325,5.187-5.186
		c0-1.24-0.44-2.384-1.174-3.28c0,0-1.498-1.829-4.013-1.829h-33.13c-2.099,0-3.992,0.878-5.339,2.285l-0.002-0.003l-14.989,13.222
		c-0.741,0.59-1.216,1.499-1.216,2.518c0,0.893,0.362,1.699,0.944,2.278l10.25,10.237c0.074,0.082,0.149,0.157,0.23,0.229
		l0.002,0.003c0.57,0.515,1.325,0.834,2.154,0.834c0.76,0,1.456-0.262,2.006-0.701l0,0l0.01-0.006
		c0.115-0.096,0.224-0.194,0.323-0.302l5.272-4.899l0.021-0.01c1.21-1.072,2.766-1.747,4.486-1.843l0.026-0.01l0.098,0.003
		c0.098-0.003,0.194-0.016,0.293-0.016c0.35,0,0.691,0.034,1.029,0.082l25.211,1.234c0.144,0.019,0.291,0.034,0.437,0.034
		c0.04,0,0.078-0.006,0.118-0.006l0.118,0.006v-0.016c0.741-0.056,1.406-0.357,1.925-0.826v0.003l0.054-0.056
		c0.034-0.032,0.066-0.066,0.099-0.098l33.171-32.781l-0.003-0.003C144.331,107.466,145,106.102,145,104.581z"/>
</g>
<text transform="matrix(1 0 0 1 19.9997 184.0002)" font-family="'Arial-BoldMT'" font-size="8">Created by Aditya Dipankar</text>
<text transform="matrix(1 0 0 1 19.9997 192.0002)" font-family="'Arial-BoldMT'" font-size="8">from the Noun Project</text>
</svg>
