<?xml version="1.0" encoding="utf-8"?>
<!-- Generator: Adobe Illustrator 17.0.0, SVG Export Plug-In . SVG Version: 6.00 Build 0)  -->
<!DOCTYPE svg PUBLIC "-//W3C//DTD SVG 1.1//EN" "http://www.w3.org/Graphics/SVG/1.1/DTD/svg11.dtd">
<svg version="1.1" id="Layer_1" xmlns="http://www.w3.org/2000/svg" xmlns:xlink="http://www.w3.org/1999/xlink" x="0px" y="0px"
	 width="113.012px" height="149.612px" viewBox="43.495 5.194 113.012 149.612"
	 enable-background="new 43.495 5.194 113.012 149.612" xml:space="preserve">
<path fill="#7AD652" d="M156.474,90.47c-0.069-1.949-1.422-3.333-3.363-3.398c-0.738-0.024-1.475-0.035-2.213-0.038
	c-4.128,0.045-7.048,4.749-7.048,4.749c-0.24,0.581-0.65,1.093-1.168,1.938c-0.478-1.805-0.843-3.232-1.235-4.65
	c-1.742-6.296-4.536-12.078-8.267-17.446c-1.342-1.931-3.013-3.218-4.888-4.114c-0.069-0.037-0.141-0.074-0.216-0.106
	c-0.032-0.013-0.062-0.027-0.093-0.04c-0.178-0.08-0.357-0.155-0.538-0.229c-2.682-1.152-5.067-2.403-6.89-4.784
	c-1.984-2.592-2.651-5.466-2.43-8.736c0.381-5.658,2.566-10.074,6.205-14.307c2.485-2.891,4.984-5.787,7.917-8.206
	c0.139-0.115,0.32-0.179,0.482-0.267c0.058,0.064,0.115,0.13,0.173,0.194c-0.186,0.251-0.36,0.512-0.56,0.752
	c-2.894,3.491-5.683,7.059-7.963,10.992c-0.589,1.016-1.07,2.066-1.467,3.152c-0.053,0.198-1.454,5.512,1.003,6.318
	c0.179,0.003,0.358,0.008,0.538,0.003c4.165-0.141,7.59-1.96,10.494-4.832c3.958-3.912,6.163-8.752,7.046-14.166
	c1.483-9.09-0.334-17.501-5.586-25.117c-0.602-0.872-1.288-1.694-2.006-2.474c-0.25-0.27-0.786-0.539-1.067-0.445
	c-0.291,0.099-0.555,0.619-0.622,0.992c-0.854,4.774-2.933,8.914-6.698,11.997c-1.821,1.493-3.97,2.6-6.018,3.797
	c-2.563,1.496-5.136,2.974-7.176,5.174c-2.974,3.205-4.878,6.893-4.77,11.381c0.088,3.746,1.77,6.787,4.555,9.163
	c1.04,0.886,1.347,1.6,0.995,2.947c-0.395,1.514-0.526,3.059-0.437,4.608c0,0,0.258,5.254,2.578,8.235c0.005,0,0.018,0,0.024,0
	c0.338,0.541,0.698,1.054,1.075,1.546c-5.592-0.56-11.214-0.61-16.837-0.603c-7.584-0.008-15.171,0.082-22.678,1.394
	c-4.146,0.725-7.923,2.072-10.501,5.779c-3.733,5.368-6.526,11.15-8.267,17.446c-0.392,1.419-0.757,2.845-1.235,4.65
	c-0.52-0.845-0.928-1.355-1.168-1.938c0,0-2.92-4.704-7.048-4.749c-0.738,0.003-1.475,0.013-2.213,0.038
	c-1.939,0.066-3.293,1.45-3.363,3.398c-0.05,1.411-0.04,2.827-0.005,4.238c0.053,2.122,1.448,3.507,3.59,3.542
	c2.118,0.035,4.24,0.01,6.36,0.01c0.846,0,1.693,0,2.538,0c0.082,0.133,0.165,0.264,0.246,0.397
	c-0.267,0.149-0.582,0.246-0.795,0.451c-5.357,5.149-8.272,11.413-8.138,18.87c0.08,4.462,0.466,8.931,0.962,13.37
	c0.384,3.422,1.181,6.787,2.712,9.934c0.653,1.342,1.498,2.4,3.035,2.677c0.725,0.13,0.808,0.563,0.8,1.182
	c-0.029,1.845-0.018,3.69-0.008,5.534c0.014,2.584,1.522,4.106,4.088,4.12c2.198,0.011,4.397,0.006,6.595,0.002
	c2.826-0.005,4.282-1.458,4.29-4.274c0.003-1.438,0-2.877,0-4.408c10.094,0.746,20.149,1.117,30.2,1.117s20.106-0.371,30.203-1.114
	c0,1.533-0.003,2.97,0,4.408c0.008,2.816,1.464,4.269,4.29,4.274c2.198,0.005,4.397,0.01,6.595-0.002
	c2.566-0.013,4.074-1.534,4.088-4.12c0.01-1.845,0.021-3.691-0.008-5.534c-0.01-0.619,0.075-1.053,0.8-1.182
	c1.538-0.277,2.381-1.334,3.035-2.677c1.531-3.146,2.328-6.512,2.712-9.934c0.498-4.438,0.882-8.907,0.962-13.37
	c0.134-7.458-2.781-13.723-8.138-18.87c-0.213-0.205-0.528-0.302-0.795-0.451c0.082-0.131,0.165-0.264,0.246-0.397
	c0.846,0,1.693,0,2.538,0c2.12,0,4.24,0.026,6.36-0.01c2.142-0.035,3.538-1.421,3.59-3.542
	C156.514,93.298,156.523,91.883,156.474,90.47z M63.702,94.829c1.608-6.714,4.128-13.058,7.674-18.992
	c0.198-0.331,0.419-0.594,0.675-0.805h-0.003c0,0,0.011-0.008,0.032-0.024c0.258-0.206,0.554-0.36,0.902-0.472
	c2.203-0.955,8.968-2.965,27.018-3.07c18.05,0.106,24.814,2.115,27.018,3.07c0.349,0.114,0.645,0.267,0.902,0.472
	c0.022,0.016,0.032,0.024,0.032,0.024h-0.005c0.256,0.211,0.477,0.474,0.675,0.805c3.546,5.934,6.066,12.278,7.674,18.992
	c0.112,0.469,0.155,0.955,0.208,1.29c-12.189-1.062-24.347-1.594-36.504-1.594s-24.315,0.533-36.504,1.595
	C63.547,95.784,63.59,95.298,63.702,94.829z M65.605,123.448c-4.402,0-7.97-3.568-7.97-7.97c0-4.402,3.568-7.971,7.97-7.971
	s7.971,3.568,7.971,7.971C73.574,119.88,70.006,123.448,65.605,123.448z M118.642,130.749c-0.595,1.21-1.632,1.555-2.92,1.547
	c-5.219-0.029-10.438-0.011-15.659-0.011c-0.021,0-0.042,0-0.062,0c-0.021,0-0.042,0-0.062,0c-5.219,0-10.438-0.018-15.659,0.011
	c-1.288,0.006-2.325-0.339-2.92-1.547c-0.611-1.243-0.123-2.28,0.685-3.23c1.53-1.797,3.469-4.32,5.834-4.33
	c4.04-0.018,8.082,0.002,12.122,0c4.04,0.002,8.082-0.018,12.122,0c2.365,0.011,4.304,2.533,5.834,4.33
	C118.765,128.469,119.253,129.506,118.642,130.749z M134.395,123.448c-4.402,0-7.971-3.568-7.971-7.97
	c0-4.402,3.568-7.971,7.971-7.971c4.402,0,7.97,3.568,7.97,7.971C142.366,119.88,138.797,123.448,134.395,123.448z"/>
<text transform="matrix(1 0 0 1 19.9997 184.0002)" font-family="'Arial-BoldMT'" font-size="8">Created by Gregor Cresnar</text>
<text transform="matrix(1 0 0 1 19.9997 192.0002)" font-family="'Arial-BoldMT'" font-size="8">from the Noun Project</text>
</svg>
