<?xml version="1.0" encoding="utf-8"?>
<!-- Generator: Adobe Illustrator 17.0.0, SVG Export Plug-In . SVG Version: 6.00 Build 0)  -->
<!DOCTYPE svg PUBLIC "-//W3C//DTD SVG 1.1//EN" "http://www.w3.org/Graphics/SVG/1.1/DTD/svg11.dtd">
<svg version="1.1" id="Layer_1" xmlns="http://www.w3.org/2000/svg" xmlns:xlink="http://www.w3.org/1999/xlink" x="0px" y="0px"
	 width="156.668px" height="164px" viewBox="19.999 24 156.668 164" enable-background="new 19.999 24 156.668 164"
	 xml:space="preserve">
<path fill="#7AD652" d="M171.665,101.333h-3.333V78c0-1.84-1.493-3.333-3.333-3.333s-3.333,1.493-3.333,3.333v23.333h-20V78
	c0-1.84-1.493-3.333-3.333-3.333s-3.333,1.493-3.333,3.333v23.333h-3.333c-1.84,0-3.333,1.493-3.333,3.333v20
	c0,11.433,8.28,20.927,19.147,22.913c-2.833,9.28-13.667,33.753-49.147,33.753c-46.693,0-63.333-32.713-63.333-63.373
	c0-0.16-0.007-8.487,3.413-20.02c4.367,2.227,9.107,3.373,13.84,3.373c7.907,0,15.76-3.047,21.66-8.94
	c5.707-5.707,7.44-16.247,9.273-27.4c1.98-12.027,4.027-24.467,10.833-31.28c0.953-0.953,1.24-2.387,0.72-3.633
	C94.232,28.813,93.012,28,91.665,28c-25.013,0-47.833,7.887-61.04,21.087c-8.847,8.847-11.4,22.027-6.5,33.587
	c0.533,1.24,1.633,1.847,3.1,2.033c1.347-0.02,2.553-0.84,3.06-2.093c4.813-11.92,11.867-22.58,20.973-31.687
	c1.3-1.3,3.413-1.3,4.713,0c1.3,1.3,1.3,3.413,0,4.713c-2.607,2.607-4.887,5.26-7.027,7.933c-0.08,0.107-0.167,0.207-0.247,0.313
	C28.305,89.58,28.319,116.773,28.332,118c0,42.52,27.473,70,70,70c41.573,0,53.427-31.233,55.987-40.267
	c11.6-1.34,20.68-11.107,20.68-23.067v-20C174.999,102.827,173.505,101.333,171.665,101.333z"/>
<text transform="matrix(1 0 0 1 19.9987 260.0031)" font-family="'Arial-BoldMT'" font-size="33.3333">Created by icon 54</text>
<text transform="matrix(1 0 0 1 19.9987 293.3338)" font-family="'Arial-BoldMT'" font-size="33.3333">from the Noun Project</text>
</svg>
