<?xml version="1.0" encoding="UTF-8" standalone="no"?>
<svg
   xmlns:dc="http://purl.org/dc/elements/1.1/"
   xmlns:cc="http://creativecommons.org/ns#"
   xmlns:rdf="http://www.w3.org/1999/02/22-rdf-syntax-ns#"
   xmlns:svg="http://www.w3.org/2000/svg"
   xmlns="http://www.w3.org/2000/svg"
   viewBox="0 0 1065.9067 262.18668"
   height="262.18668"
   width="1065.9067"
   xml:space="preserve"
   id="svg2"
   version="1.1"><metadata
     id="metadata8"><rdf:RDF><cc:Work
         rdf:about=""><dc:format>image/svg+xml</dc:format><dc:type
           rdf:resource="http://purl.org/dc/dcmitype/StillImage" /></cc:Work></rdf:RDF></metadata><defs
     id="defs6"><clipPath
       id="clipPath20"
       clipPathUnits="userSpaceOnUse"><path
         style="clip-rule:evenodd"
         id="path18"
         d="M 1019.08,730.18 C 775.152,900.191 799.793,1278.4 452.379,1463.2 c -80.078,43.11 680.041,224.21 1081.661,-9.86 92.4,-54.21 154,-118.27 194.65,-184.79 -123.2,340.02 -447.2,582.72 -829.108,582.72 -486.629,0 -880.8554,-394.23 -880.8554,-880.86 0,-486.621 394.2264,-880.8514 880.8554,-880.8514 353.568,0 657.868,208.1914 798.308,508.8004 -49.28,75.153 -91.17,121.961 -91.17,121.961 -147.83,-54.211 -406.54,-119.5 -587.64,9.86 z m -170.006,601.2 c 0,0 577.786,-195.89 899.326,-592.579 16.01,60.371 27.11,121.969 29.57,187.25 -376.98,425.039 -928.896,405.329 -928.896,405.329 z" /></clipPath></defs><g
     transform="matrix(1.3333333,0,0,-1.3333333,0,262.18667)"
     id="g10"><g
       transform="scale(0.1)"
       id="g12"><g
         id="g14"><g
           clip-path="url(#clipPath20)"
           id="g16"><path
             id="path22"
             style="fill:#38b23e;fill-opacity:1;fill-rule:evenodd;stroke:none"
             d="M -14.3984,27.6484 H 1796.59 V 2503.9 H -14.3984 V 27.6484" /><path
             id="path24"
             style="fill:#42b93b;fill-opacity:1;fill-rule:nonzero;stroke:none"
             d="M 695.941,2503.89 -14.3984,1847.75 V 27.6484 H 1796.59 V 127.641 C 1119.82,1144.89 827.191,1936.98 918.664,2503.89 H 695.941" /><path
             id="path26"
             style="fill:#5fc232;fill-opacity:1;fill-rule:nonzero;stroke:none"
             d="M 293.051,2503.89 -14.3984,2355.65 V 226.57 C 65.8398,156.852 142.91,90.5703 216.93,27.6484 h 940.03 C 666.484,982.359 583.43,1807.67 907.754,2503.89 H 293.051" /><path
             id="path28"
             style="fill:#72c82c;fill-opacity:1;fill-rule:nonzero;stroke:none"
             d="M 147.223,2503.89 -14.3984,2417.32 V 517.391 C 130.129,330.379 258.184,167.078 369.691,27.6484 H 641.93 C 245.191,872.191 328.73,1697.54 892.648,2503.89 H 147.223" /></g></g><path
         id="path30"
         style="fill:#2e2d2d;fill-opacity:1;fill-rule:nonzero;stroke:none"
         d="m 3304.54,897.809 h 124.55 V 375.102 c -69.43,-58.551 -150.08,-104.481 -241.96,-137.832 -91.89,-33.372 -185.49,-50.02 -280.75,-50.02 -134.76,0 -259,32.66 -372.64,98 -113.67,65.352 -203.87,153.809 -270.55,265.441 -66.71,111.598 -100.05,233.45 -100.05,365.5 0,132.009 33.34,253.189 100.05,363.439 66.68,110.26 157.55,197.71 272.59,262.38 115.02,64.63 240.59,96.98 376.72,96.98 96.64,0 190.22,-17.03 280.75,-51.04 90.52,-34.04 170.5,-81.67 239.92,-142.93 l -81.68,-100.04 c -58.54,54.42 -125.91,96.28 -202.13,125.56 -76.25,29.26 -155.18,43.91 -236.86,43.91 -110.26,0 -211.68,-26.9 -304.23,-80.66 -92.59,-53.79 -166.1,-126.27 -220.52,-217.46 -54.46,-91.21 -81.68,-191.26 -81.68,-300.139 0,-110.261 27.22,-211.339 81.68,-303.222 54.42,-91.879 128.28,-164.719 221.54,-218.481 93.22,-53.789 195,-80.636 305.25,-80.636 68.06,0 135.79,11.218 203.17,33.679 67.38,22.457 129.65,54.11 186.83,94.949 v 455.329" /><path
         id="path32"
         style="fill:#2e2d2d;fill-opacity:1;fill-rule:nonzero;stroke:none"
         d="m 3843.56,1626.75 h 955.57 v -126.6 H 3984.44 V 989.691 h 728.94 V 863.102 H 3984.44 V 326.09 h 841.24 V 199.5 h -982.12 v 1427.25" /><path
         id="path34"
         style="fill:#2e2d2d;fill-opacity:1;fill-rule:nonzero;stroke:none"
         d="m 5330.02,705.871 h 681.97 L 5668.95,1477.69 Z M 6236.59,199.5 6067.11,579.281 H 5274.87 L 5107.45,199.5 h -151.1 l 643.18,1427.25 h 147.01 L 6389.72,199.5 h -153.13" /><path
         id="path36"
         style="fill:#2e2d2d;fill-opacity:1;fill-rule:nonzero;stroke:none"
         d="m 7157.45,787.551 c 136.1,0 240.93,30.949 314.45,92.91 73.5,61.918 110.25,151.399 110.25,268.489 0,114.35 -36.75,201.44 -110.25,261.36 -73.52,59.89 -178.35,89.84 -314.45,89.84 H 6765.42 V 787.551 Z M 7565.83,199.5 7257.5,665.039 c -43.59,-2.75 -76.92,-4.078 -100.05,-4.078 H 6765.42 V 199.5 h -140.89 v 1427.25 h 532.92 c 178.31,0 316.13,-41.2 413.47,-123.53 97.31,-82.38 145.99,-199.09 145.99,-350.18 0,-118.43 -28.58,-217.13 -85.75,-296.071 -57.18,-78.957 -138.85,-134.09 -245.02,-165.391 L 7729.17,199.5 h -163.34" /></g></g></svg>