<svg xmlns="http://www.w3.org/2000/svg" viewBox="0 0 330.72 74.19"><defs><style>.cls-1{fill:#fff;}</style></defs><title>Asset 1</title><g id="Layer_2" data-name="Layer 2"><g id="Layer_1-2" data-name="Layer 1"><path class="cls-1" d="M144.39,39.69h5.25v22a33.22,33.22,0,0,1-10.19,5.8,34.4,34.4,0,0,1-11.82,2.11,31.38,31.38,0,0,1-27.09-15.31,29.45,29.45,0,0,1-4.21-15.39,29,29,0,0,1,4.21-15.31,30.79,30.79,0,0,1,11.48-11,31.84,31.84,0,0,1,15.87-4.08,33.36,33.36,0,0,1,11.82,2.15,32.3,32.3,0,0,1,10.1,6l-3.44,4.21a26.15,26.15,0,0,0-8.51-5.29,27.61,27.61,0,0,0-10-1.85,25.06,25.06,0,0,0-12.81,3.4,25.63,25.63,0,0,0-9.29,9.16,24.2,24.2,0,0,0-3.44,12.64,24.58,24.58,0,0,0,3.44,12.77A25.67,25.67,0,0,0,128,64.29a26.91,26.91,0,0,0,8.56-1.42,29.52,29.52,0,0,0,7.87-4Z"/><path class="cls-1" d="M167.09,9h40.24v5.33H173v21.5h30.7v5.33H173V63.77h35.43V69.1H167.09Z"/><path class="cls-1" d="M267.87,69.1l-7.14-16H227.36l-7.05,16H214L241,9h6.19L274.32,69.1ZM229.69,47.78h28.72L244,15.27Z"/><path class="cls-1" d="M323.85,69.1l-13-19.61q-2.75.17-4.21.17H290.14V69.1H284.2V9h22.44q11.26,0,17.41,5.2t6.15,14.75a20.7,20.7,0,0,1-3.61,12.47,18.84,18.84,0,0,1-10.32,7L330.72,69.1Zm-17.2-24.77q8.6,0,13.24-3.91t4.64-11.31q0-7.22-4.64-11t-13.24-3.78H290.14v30Z"/><path class="cls-1" d="M35,21.89s23,5.28,38.2,22.87a.86.86,0,0,0,.17.14A36.16,36.16,0,0,0,74,38.85C61.84,23.24,35,21.89,35,21.89Z"/><path class="cls-1" d="M42.13,47.21c-10.27-7.16-9.24-23.09-23.87-30.87-3.37-1.82,28.64-9.44,45.55.42A22.9,22.9,0,0,1,72,24.54a37.12,37.12,0,1,0-1.3,28.22,47.5,47.5,0,0,0-3.84-5.14C60.65,49.91,49.76,52.66,42.13,47.21Z"/></g></g></svg>