<?xml version="1.0" encoding="utf-8"?>
<!-- Generator: Adobe Illustrator 17.0.0, SVG Export Plug-In . SVG Version: 6.00 Build 0)  -->
<!DOCTYPE svg PUBLIC "-//W3C//DTD SVG 1.1//EN" "http://www.w3.org/Graphics/SVG/1.1/DTD/svg11.dtd">
<svg version="1.1" id="Layer_1" xmlns="http://www.w3.org/2000/svg" xmlns:xlink="http://www.w3.org/1999/xlink" x="0px" y="0px"
	 width="193.743px" height="194.015px" viewBox="0 0 193.743 194.015" enable-background="new 0 0 193.743 194.015"
	 xml:space="preserve">
<g>
	<g>
		<defs>
			<path id="SVGID_3_" d="M91.445,57.255c0,0,63.631,21.572,99.043,65.26c1.764-6.648,2.985-13.432,3.256-20.622
				C152.227,55.084,91.445,57.255,91.445,57.255z M110.168,123.464c-26.864-18.723-24.15-60.375-62.41-80.727
				c-8.819-4.748,74.892-24.693,119.122,1.086c10.176,5.97,16.959,13.025,21.436,20.351C174.749,26.728,139.067,0,97.007,0
				C43.416,0,0,43.416,0,97.008c0,53.591,43.416,97.007,97.007,97.007c38.939,0,72.45-22.929,87.917-56.034
				c-5.427-8.276-10.04-13.432-10.04-13.432C158.604,130.519,130.112,137.71,110.168,123.464z"/>
		</defs>
		<clipPath id="SVGID_1_">
			<use xlink:href="#SVGID_3_"  overflow="visible"/>
		</clipPath>
		
			<rect x="-3.648" y="-71.875" clip-path="url(#SVGID_1_)" fill-rule="evenodd" clip-rule="evenodd" fill="#2BAD4A" width="199.442" height="272.708"/>
		<path clip-path="url(#SVGID_1_)" fill="#3FB349" d="M74.581-71.873L-3.648,0.387v200.446h199.442v-11.012
			C121.262,77.792,89.036-9.44,99.109-71.873H74.581z"/>
		<path clip-path="url(#SVGID_1_)" fill="#69BD45" d="M30.211-71.873L-3.648-55.548v234.473
			c8.837,7.679,17.324,14.979,25.476,21.908h103.525C71.337,95.692,62.19,4.801,97.907-71.873H30.211z"/>
		<path clip-path="url(#SVGID_1_)" fill="#7EC242" d="M14.151-71.873L-3.648-62.34v209.238
			c15.916,20.595,30.019,38.579,42.299,53.935h29.981C24.94,107.825,34.14,16.93,96.244-71.873H14.151z"/>
	</g>
	<g>
		<path fill="#A3A3A2" d="M388.412,103.796h13.716v57.566c-7.645,6.447-16.527,11.506-26.646,15.179
			c-10.119,3.675-20.428,5.509-30.919,5.509c-14.841,0-28.523-3.598-41.039-10.794c-12.518-7.195-22.451-16.939-29.795-29.232
			c-7.347-12.29-11.018-25.709-11.018-40.252c0-14.539,3.671-27.883,11.018-40.026c7.344-12.143,17.35-21.774,30.02-28.896
			c12.666-7.118,26.495-10.681,41.488-10.681c10.642,0,20.948,1.876,30.919,5.621c9.968,3.749,18.777,8.995,26.422,15.741
			l-8.995,11.018c-6.447-5.994-13.868-10.604-22.261-13.829c-8.398-3.222-17.09-4.835-26.085-4.835
			c-12.143,0-23.312,2.962-33.505,8.882c-10.196,5.924-18.291,13.907-24.285,23.949c-5.998,10.045-8.995,21.064-8.995,33.055
			c0,12.143,2.997,23.274,8.995,33.393c5.994,10.119,14.128,18.141,24.398,24.061c10.266,5.924,21.475,8.882,33.617,8.882
			c7.495,0,14.954-1.236,22.375-3.71s14.279-5.959,20.575-10.456V103.796z"/>
		<path fill="#A3A3A2" d="M447.773,23.519H553.01v13.942h-89.72v56.217h80.277v13.942h-80.277v59.14h92.645v13.942H447.773V23.519z"
			/>
		<path fill="#A3A3A2" d="M711.316,180.701l-18.664-41.825h-87.249l-18.439,41.825h-16.639l70.832-157.182h16.19l70.833,157.182
			H711.316z M611.475,124.934h75.105l-37.779-85L611.475,124.934z"/>
		<path fill="#A3A3A2" d="M857.703,180.701l-33.956-51.27c-4.799,0.302-8.471,0.45-11.019,0.45h-43.174v50.82h-15.516V23.519h58.69
			c19.638,0,34.816,4.536,45.536,13.604c10.716,9.072,16.078,21.925,16.078,38.565c0,13.042-3.148,23.913-9.445,32.606
			c-6.296,8.695-15.29,14.767-26.984,18.214l37.777,54.193H857.703z M812.729,115.939c14.99,0,26.535-3.408,34.63-10.232
			c8.094-6.82,12.142-16.675,12.142-29.569c0-12.593-4.048-22.185-12.142-28.783c-8.096-6.595-19.641-9.895-34.63-9.895h-43.174
			v78.479H812.729z"/>
	</g>
</g>
</svg>
