<?xml version="1.0" encoding="utf-8"?>
<!-- Generator: Adobe Illustrator 17.0.0, SVG Export Plug-In . SVG Version: 6.00 Build 0)  -->
<!DOCTYPE svg PUBLIC "-//W3C//DTD SVG 1.1//EN" "http://www.w3.org/Graphics/SVG/1.1/DTD/svg11.dtd">
<svg version="1.1" id="Layer_1" xmlns="http://www.w3.org/2000/svg" xmlns:xlink="http://www.w3.org/1999/xlink" x="0px" y="0px"
	 width="471.5px" height="472.2px" viewBox="0 0 471.5 472.2" enable-background="new 0 0 471.5 472.2" xml:space="preserve">
<g>
	<g>
		<path id="SVGID_3_" fill="#E2E2E2" d="M222.6,139.5c0,0,154.9,52.5,241,158.8c4.3-16.2,7.3-32.7,7.9-50.2
			C370.5,134.2,222.6,139.5,222.6,139.5z M268.1,300.6c-65.4-45.6-58.8-146.9-151.9-196.5C94.7,92.5,298.5,44,406.1,106.7
			c24.8,14.5,41.3,31.7,52.2,49.5C425.3,65.1,338.4,0,236.1,0C105.7,0,0,105.7,0,236.1s105.7,236.1,236.1,236.1
			c94.8,0,176.3-55.8,214-136.4c-13.2-20.1-24.4-32.7-24.4-32.7C386,317.8,316.7,335.3,268.1,300.6z"/>
	</g>
	<g>
		<defs>
			<path id="SVGID_1_" d="M222.6,139.5c0,0,154.9,52.5,241,158.8c4.3-16.2,7.3-32.7,7.9-50.2C370.5,134.2,222.6,139.5,222.6,139.5z
				 M268.1,300.6c-65.4-45.6-58.8-146.9-151.9-196.5C94.7,92.5,298.5,44,406.1,106.7c24.8,14.5,41.3,31.7,52.2,49.5
				C425.3,65.1,338.4,0,236.1,0C105.7,0,0,105.7,0,236.1s105.7,236.1,236.1,236.1c94.8,0,176.3-55.8,214-136.4
				c-13.2-20.1-24.4-32.7-24.4-32.7C386,317.8,316.7,335.3,268.1,300.6z"/>
		</defs>
		<clipPath id="SVGID_2_">
			<use xlink:href="#SVGID_1_"  overflow="visible"/>
		</clipPath>
		<rect x="-8.9" y="-174.8" clip-path="url(#SVGID_2_)" fill="#E2E2E2" width="485.4" height="663.7"/>
	</g>
	<g>
		<defs>
			<path id="SVGID_4_" d="M222.6,139.5c0,0,154.9,52.5,241,158.8c4.3-16.2,7.3-32.7,7.9-50.2C370.5,134.2,222.6,139.5,222.6,139.5z
				 M268.1,300.6c-65.4-45.6-58.8-146.9-151.9-196.5C94.7,92.5,298.5,44,406.1,106.7c24.8,14.5,41.3,31.7,52.2,49.5
				C425.3,65.1,338.4,0,236.1,0C105.7,0,0,105.7,0,236.1s105.7,236.1,236.1,236.1c94.8,0,176.3-55.8,214-136.4
				c-13.2-20.1-24.4-32.7-24.4-32.7C386,317.8,316.7,335.3,268.1,300.6z"/>
		</defs>
		<clipPath id="SVGID_5_">
			<use xlink:href="#SVGID_4_"  overflow="visible"/>
		</clipPath>
		<path clip-path="url(#SVGID_5_)" fill="#E2E2E2" d="M181.5-174.8L-8.9,1v487.8h485.4V462C295.1,189.4,216.7-22.9,241.2-174.8
			H181.5z"/>
	</g>
	<g>
		<defs>
			<path id="SVGID_6_" d="M222.6,139.5c0,0,154.9,52.5,241,158.8c4.3-16.2,7.3-32.7,7.9-50.2C370.5,134.2,222.6,139.5,222.6,139.5z
				 M268.1,300.6c-65.4-45.6-58.8-146.9-151.9-196.5C94.7,92.5,298.5,44,406.1,106.7c24.8,14.5,41.3,31.7,52.2,49.5
				C425.3,65.1,338.4,0,236.1,0C105.7,0,0,105.7,0,236.1s105.7,236.1,236.1,236.1c94.8,0,176.3-55.8,214-136.4
				c-13.2-20.1-24.4-32.7-24.4-32.7C386,317.8,316.7,335.3,268.1,300.6z"/>
		</defs>
		<clipPath id="SVGID_7_">
			<use xlink:href="#SVGID_6_"  overflow="visible"/>
		</clipPath>
		<path clip-path="url(#SVGID_7_)" fill="#E2E2E2" d="M73.6-174.8l-82.4,39.7v570.6c21.5,18.7,42.2,36.5,62,53.3h252
			C173.6,233,151.4,11.8,238.3-174.8H73.6z"/>
	</g>
	<g>
		<defs>
			<path id="SVGID_8_" d="M222.6,139.5c0,0,154.9,52.5,241,158.8c4.3-16.2,7.3-32.7,7.9-50.2C370.5,134.2,222.6,139.5,222.6,139.5z
				 M268.1,300.6c-65.4-45.6-58.8-146.9-151.9-196.5C94.7,92.5,298.5,44,406.1,106.7c24.8,14.5,41.3,31.7,52.2,49.5
				C425.3,65.1,338.4,0,236.1,0C105.7,0,0,105.7,0,236.1s105.7,236.1,236.1,236.1c94.8,0,176.3-55.8,214-136.4
				c-13.2-20.1-24.4-32.7-24.4-32.7C386,317.8,316.7,335.3,268.1,300.6z"/>
		</defs>
		<clipPath id="SVGID_9_">
			<use xlink:href="#SVGID_8_"  overflow="visible"/>
		</clipPath>
		<path clip-path="url(#SVGID_9_)" fill="#E2E2E2" d="M34.5-174.8l-43.3,23.2v509.2c38.7,50.1,73.1,93.9,102.9,131.3h73
			c-106.4-226.4-84-447.6,67.2-663.7H34.5z"/>
	</g>
</g>
<rect x="54.6" y="104" fill="none" width="366.3" height="161.7"/>
<rect x="139.1" y="348.8" fill="none" width="218.7" height="25.4"/>
<rect x="134.3" y="286.4" fill="none" width="220.4" height="25.6"/>
</svg>
