<?xml version="1.0" encoding="utf-8"?>
<!-- Generator: Adobe Illustrator 17.0.0, SVG Export Plug-In . SVG Version: 6.00 Build 0)  -->
<!DOCTYPE svg PUBLIC "-//W3C//DTD SVG 1.1//EN" "http://www.w3.org/Graphics/SVG/1.1/DTD/svg11.dtd">
<svg version="1.1" id="Layer_1" xmlns="http://www.w3.org/2000/svg" xmlns:xlink="http://www.w3.org/1999/xlink" x="0px" y="0px"
	 width="277.167px" height="99.332px" viewBox="0 53.834 277.167 99.332" enable-background="new 0 53.834 277.167 99.332"
	 xml:space="preserve">
<path fill="#80C147" d="M0,72.833c0,0,48.114,21.307,112.454,20.947c64.34-0.36,164.755-39.946,164.755-39.946l-0.074,82.46
	c0,0-109.022-17.294-152.373-14.374C81.437,124.82-0.118,149.867-0.02,144.167C0.009,132.953,0,72.833,0,72.833z"/>
<path fill="#6DBD4C" d="M-0.02,151.833c59.84-22.247,60.076-19.82,100.98-26.693c39.752-6.68,176.211,8.83,176.211,8.83
	l-0.01-69.527c0,0-157.344,38.317-173.328,32.057c-18.42,3.36-60.333,35-60.333,35s-22.85,3.22-43.5,11c0,0.06,0.042,12,0.042,12.06
	C0.063,162.14-0.02,151.833-0.02,151.833z"/>
</svg>
