<?xml version="1.0" encoding="utf-8"?>
<!-- Generator: Adobe Illustrator 17.0.0, SVG Export Plug-In . SVG Version: 6.00 Build 0)  -->
<!DOCTYPE svg PUBLIC "-//W3C//DTD SVG 1.1//EN" "http://www.w3.org/Graphics/SVG/1.1/DTD/svg11.dtd">
<svg version="1.1" id="Layer_1" xmlns:serif="http://www.serif.com/"
	 xmlns="http://www.w3.org/2000/svg" xmlns:xlink="http://www.w3.org/1999/xlink" x="0px" y="0px" width="200px" height="187.02px"
	 viewBox="0 5.146 200 187.02" enable-background="new 0 5.146 200 187.02" xml:space="preserve">
<g transform="matrix(1,0,0,1,-1263,-174)">
	<g transform="matrix(1.78799,-0.359945,0.359945,1.78799,-1900.02,757.649)">
		<path fill="#EBEBEB" d="M1846.428,136.426c-0.197,0.241,6.352,17.021,9.769,26.182c1.914,5.127-0.359,6.393-4.656,10.811
			c-1.674-7.791-17.422-39.993-17.422-39.993c-13.961-0.243-37.446-3.113-48.289-19.601c-14.741-21.859-0.611-52.354-23.438-78.744
			c-5.244-6.126,63.414,3.195,89.149,35.394c5.909,7.437,8.174,16.586,8.134,26.302c-0.024,5.758-1.426,17.456-4.815,25.107
			l-0.048,0.11l-0.002,0l0.049-0.109c-17.593-47.205-63.872-63.219-63.872-63.219S1832.515,93.337,1846.428,136.426z
			 M1846.504,136.321l0.066-0.091l0.006,0.017l-0.043,0.053l-0.104,0.126L1846.504,136.321z"/>
	</g>
</g>
</svg>
