<?xml version="1.0" encoding="utf-8"?>
<!-- Generator: Adobe Illustrator 17.0.0, SVG Export Plug-In . SVG Version: 6.00 Build 0)  -->
<!DOCTYPE svg PUBLIC "-//W3C//DTD SVG 1.1//EN" "http://www.w3.org/Graphics/SVG/1.1/DTD/svg11.dtd">
<svg version="1.1" id="Layer_1" xmlns="http://www.w3.org/2000/svg" xmlns:xlink="http://www.w3.org/1999/xlink" x="0px" y="0px"
	 width="1000px" height="198.613px" viewBox="0 0 1000 198.613" enable-background="new 0 0 1000 198.613" xml:space="preserve">
<g>
	<g>
		<path fill="#E6E6E9" d="M2.382,135.586l12.642-2.015V16.861L0.916,15.029L1.649,2.387H89.96l-2.199,35.361l-17.589-0.55
			l-1.099-22.169h-27.3v52.583h11.909L56.43,55.52l12.276,0.366v36.277H56.431L53.5,79.704H41.59v55.698h27.483l2.565-24.185
			l18.505,0.55l1.466,36.827H1.832L2.382,135.586z"/>
		<path fill="#E6E6E9" d="M99.853,148.778l0.55-10.81l9.894-2.015V62.3l-11.543-1.1V50.207l28.948-4.214l2.199,6.229v4.214
			c6.962-7.329,15.39-11.726,26.2-11.726c15.757,0,27.483,9.527,27.483,28.399v62.66l10.443,2.015l-0.55,10.81h-34.445V78.605
			c0-10.077-3.664-15.757-12.825-15.757c-3.115,0-5.313,0.55-7.695,1.466c-1.466,1.283-2.931,3.115-4.214,4.764v67.058l10.443,2.015
			l-0.733,10.81H99.853V148.778z"/>
		<path fill="#E6E6E9" d="M653.353,148.778l0.366-10.81l9.894-2.015V62.3l-11.543-1.099V50.208l28.948-4.214l2.199,6.229v4.214
			c6.962-7.329,15.39-11.726,26.2-11.726c15.757,0,27.483,9.527,27.483,28.399v62.66l10.443,2.015l-0.55,10.81h-34.262V78.606
			c0-10.077-3.664-15.757-12.825-15.757c-3.115,0-5.313,0.55-7.695,1.466c-1.466,1.283-2.932,3.115-4.214,4.764v67.058l10.443,2.015
			l-0.733,10.81h-44.155v-0.184L653.353,148.778L653.353,148.778z"/>
		<path fill="#E6E6E9" d="M248.626,146.762c-4.031,1.649-11.176,3.481-20.52,3.481c-12.276,0-23.635-5.497-23.635-23.452V62.299
			l-11.726-1.832l0.55-12.825l13.192-0.55l5.68-19.604l16.856-0.733v21.07h18.139l-1.283,12.825l-16.673,1.832v64.492
			c0,5.313,2.931,8.794,8.428,8.794h9.894L248.626,146.762z"/>
		<path fill="#E6E6E9" d="M934.408,148.778l0.366-10.627l9.344-2.199V62.299L933.126,61.2V50.207l30.048-4.214l2.015,7.145v2.382
			c7.878-5.863,18.505-9.711,31.33-9.711l4.397,3.848l-3.115,27.849l-16.49-0.55l-1.649-14.841
			c-3.847,0.55-7.512,1.649-10.627,3.848v70.172l10.443,2.199l-0.733,10.627h-44.339v-0.183H934.408z"/>
		<path fill="#E6E6E9" d="M502.931,148.778l0.55-10.627l9.344-2.199V62.299L501.832,61.2V50.207l30.048-4.214l2.015,7.145v2.382
			c7.878-5.863,18.505-9.711,31.33-9.711l4.397,3.848l-3.481,27.849l-16.49-0.55l-1.649-14.841
			c-3.848,0.55-7.512,1.649-10.627,3.848v70.172l10.443,2.199l-0.733,10.627H502.93v-0.183H502.931z"/>
		<path fill="#E6E6E9" d="M255.954,148.778l0.55-10.627l9.344-2.199V62.299L254.855,61.2V50.207l30.048-4.214l2.015,7.145v2.382
			c7.878-5.863,18.505-9.711,31.147-9.711l4.397,3.848l-3.115,27.849l-16.49-0.55l-1.649-14.841
			c-3.848,0.55-7.512,1.649-10.627,3.848v70.172l10.443,2.199l-0.733,10.627h-44.339v-0.183H255.954z"/>
		<path fill="#E6E6E9" d="M350.861,103.89c0,17.589,7.695,31.147,22.902,31.147c7.878,0,14.108-1.649,21.436-5.13l4.214,9.711
			c-7.512,6.046-18.505,10.627-32.246,10.627c-26.75,0-42.14-23.085-42.14-52.767c0-25.284,11.176-52.95,41.774-52.95
			c26.75,0,36.827,24.734,36.827,52.217l-2.565,6.596L350.861,103.89z M350.495,92.164l30.781-1.466
			c-0.55-12.276-3.115-31.697-15.207-31.697c-2.931,0-4.947,0.55-8.611,2.382C352.51,69.811,350.495,85.018,350.495,92.164z"/>
		<path fill="#E6E6E9" d="M776.658,103.89c0,17.589,7.695,31.147,22.902,31.147c7.878,0,14.108-1.649,21.436-5.13l4.214,9.711
			c-7.512,6.046-18.505,10.627-32.246,10.627c-26.75,0-42.14-23.085-42.14-52.767c0-25.284,11.176-52.95,41.773-52.95
			c26.75,0,36.827,24.734,36.827,52.217l-2.565,6.596L776.658,103.89z M776.292,92.164l30.781-1.466
			c-0.55-12.276-3.115-31.697-15.207-31.697c-2.931,0-4.947,0.55-8.611,2.382C778.307,69.811,776.292,85.018,776.292,92.164z"/>
		<path fill="#E6E6E9" d="M597.838,103.89c0,17.589,7.695,31.147,22.902,31.147c7.878,0,14.108-1.649,21.436-5.13l4.214,9.711
			c-7.512,6.046-18.505,10.627-32.246,10.627c-26.75,0-42.14-23.085-42.14-52.767c0-25.284,11.176-52.95,41.773-52.95
			c26.75,0,36.827,24.734,36.827,52.217l-2.565,6.596L597.838,103.89z M597.472,92.164l30.78-1.466
			c-0.55-12.276-3.115-31.697-15.207-31.697c-2.932,0-4.947,0.55-8.611,2.382C599.487,69.811,597.288,85.018,597.472,92.164z"/>
		<path fill="#E6E6E9" d="M898.681,148.778l-2.565-8.794c-6.779,6.413-13.375,10.26-23.635,10.26
			c-15.757,0-29.864-7.878-29.864-29.681V59.735l-11.543-1.099v-9.711l33.346-3.848l2.565,8.794v63.76
			c0,11.176,4.58,17.039,13.558,17.039c2.565,0,5.863-0.366,8.794-1.466c1.649-1.649,3.298-3.664,4.58-5.68v-67.79l-11.909-1.099
			v-9.711l33.712-3.848l2.565,8.794v82.081l10.443,2.015l-1.283,10.81h-28.764L898.681,148.778L898.681,148.778z"/>
	</g>
	<path fill="#E6E6E9" d="M453.646,135.586c-5.313,0-9.527-0.916-12.825-2.748V68.162c1.466-2.199,3.115-4.214,4.764-6.046
		c3.115-1.099,5.863-1.466,9.161-1.466c13.741,0,16.123,13.925,16.123,38.842c0,24.001-3.664,30.597-4.58,33.346
		C462.44,134.67,458.41,135.586,453.646,135.586z M494.687,95.095c0-30.964-9.161-50.385-32.063-50.385
		c-15.207,0-22.352,8.794-25.284,12.459v-3.481l-2.565-8.794l-29.864,4.214v10.627l11.543,1.466v124.954l-9.894,2.015l-0.55,10.443
		h44.155l0.733-10.443l-10.443-2.015V146.58c4.214,2.382,10.077,3.848,16.49,3.848C494.32,150.427,494.687,112.501,494.687,95.095z"
		/>
</g>
</svg>
