<?xml version="1.0" encoding="utf-8"?>
<!-- Generator: Adobe Illustrator 17.0.0, SVG Export Plug-In . SVG Version: 6.00 Build 0)  -->
<!DOCTYPE svg PUBLIC "-//W3C//DTD SVG 1.1//EN" "http://www.w3.org/Graphics/SVG/1.1/DTD/svg11.dtd">
<svg version="1.1" id="Layer_1" xmlns="http://www.w3.org/2000/svg" xmlns:xlink="http://www.w3.org/1999/xlink" x="0px" y="0px"
	 width="1000.14px" height="116.946px" viewBox="0 0 1000.14 116.946" enable-background="new 0 0 1000.14 116.946"
	 xml:space="preserve">
<g id="Layer_2" display="none">
	<rect y="437.5" display="inline" width="1000" height="125"/>
</g>
<g id="Layer_1_1_">
	<g>
		<g>
			<path fill="#EEEEF0" d="M129.306,114.584h36.528L185.417,2.501h-36.528l-7.222,40.139H110l7.222-40.139H80.694L61.111,114.584
				h36.528L105,72.64h31.667L129.306,114.584z"/>
		</g>
		<g>
			<path fill="#EEEEF0" d="M206.111,2.362L195,64.723c-0.972,4.861-1.389,9.583-1.389,14.028c0,33.056,28.889,38.056,46.25,38.056
				c36.389,0,52.083-12.083,57.778-44.722l12.222-69.861h-36.528l-10.417,58.611c-3.333,18.333-5.694,27.917-19.306,27.917
				c-8.889,0-13.194-4.722-13.194-14.444c0-3.75,0.556-8.333,1.667-14.028l10.556-58.056h-36.528L206.111,2.362L206.111,2.362z"/>
		</g>
		<g>
			<path fill="#EEEEF0" d="M502.917,114.584h36.528l5.139-28.889h17.222c31.806,0,49.444-17.222,49.444-48.611
				c0-22.083-15.278-34.722-42.083-34.722H522.5L502.917,114.584z M559.861,58.056h-10.556l4.861-26.389h9.861
				c8.056,0,12.361,4.028,12.361,11.389C576.389,52.362,570.139,58.056,559.861,58.056z"/>
		</g>
		<g>
			<path fill="#EEEEF0" d="M682.222,0.001c-39.722,0-63.472,25.694-63.472,68.889c0,30,18.889,48.056,50.556,48.056
				c39.722,0,63.472-25.694,63.472-68.889C732.917,17.917,714.028,0.001,682.222,0.001z M671.528,87.917
				c-9.444,0-15-6.806-15-18.194c0-4.306,0.417-8.056,1.25-12.361c2.778-14.722,7.5-28.194,22.361-28.194
				c9.444,0,15,6.806,15,18.194c0,4.306-0.417,8.056-1.25,12.361C691.111,74.306,686.389,87.917,671.528,87.917z"/>
		</g>
		<g>
			<path fill="#EEEEF0" d="M859.861,114.584h36.528l14.444-82.083h27.5l5.278-30h-93.472l-5.278,30h29.167L859.861,114.584z"/>
		</g>
		<path fill="#EEEEF0" d="M799.306,43.89c-11.528-3.611-16.25-5.139-16.25-10.556c0-3.611,2.361-7.917,9.306-7.917
			c5.139,0,9.444,2.917,11.111,7.222l32.222-8.75C831.945,8.056,818.334,0,794.862,0c-44.167,0-47.639,29.583-47.639,38.611
			c0,18.333,9.722,29.583,30.833,35.417C783.612,75.556,790,77.222,790,83.334c0,4.861-3.611,7.917-9.861,7.917
			c-5.694,0-11.806-3.333-13.889-9.167l-31.806,8.611c3.472,16.667,19.167,26.111,43.75,26.111c18.75,0,50.139-5,50.139-38.889
			C828.472,60.973,818.889,49.862,799.306,43.89z"/>
		<g>
			<path fill="#EEEEF0" d="M40.694,114.584L60.416,2.501H0v112.083H40.694z"/>
		</g>
		<g>
			<path fill="#EEEEF0" d="M959.306,2.501l-19.583,112.083h60.417V2.501H959.306z"/>
		</g>
		<polygon fill="#EEEEF0" points="330.694,2.362 311.111,114.584 347.639,114.584 353.472,81.529 384.167,81.529 389.167,53.334 
			358.472,53.334 361.944,32.501 404.861,32.501 410.139,2.362 		"/>
		<polygon fill="#EEEEF0" points="426.528,2.362 406.944,114.584 443.472,114.584 449.167,81.529 480,81.529 485,53.334 
			454.306,53.334 457.778,32.501 500.694,32.501 505.972,2.362 		"/>
	</g>
</g>
</svg>
