<?xml version="1.0" encoding="utf-8"?>
<!-- Generator: Adobe Illustrator 17.0.0, SVG Export Plug-In . SVG Version: 6.00 Build 0)  -->
<!DOCTYPE svg PUBLIC "-//W3C//DTD SVG 1.1//EN" "http://www.w3.org/Graphics/SVG/1.1/DTD/svg11.dtd">
<svg version="1.1" id="Layer_1" xmlns="http://www.w3.org/2000/svg" xmlns:xlink="http://www.w3.org/1999/xlink" x="0px" y="0px"
	 width="200px" height="36.852px" viewBox="0 75.854 200 36.852" enable-background="new 0 75.854 200 36.852" xml:space="preserve"
	>
<g>
	<path fill="#E6E6E9" d="M0,75.854h14.663c2.793,0,4.888,0.698,6.439,1.862c1.707,1.396,2.638,3.413,2.638,5.896
		c0,2.87-1.164,4.655-3.491,5.741v0.155c3.103,1.009,4.888,3.801,4.888,7.137c0,3.181-1.241,5.663-3.258,7.215
		c-1.707,1.241-3.879,1.784-6.827,1.784H0V75.854z M13.189,87.491c1.552,0,2.715-0.853,2.715-2.638c0-1.707-1.164-2.56-2.793-2.56
		H8.068v5.12h5.12V87.491z M13.887,99.05c1.784,0,3.103-1.086,3.103-3.026c0-2.095-1.396-3.026-3.103-3.026H8.146v6.129h5.741V99.05
		z"/>
	<path fill="#E6E6E9" d="M26.455,75.854h7.68v29.868h-7.68V75.854z"/>
	<path fill="#E6E6E9" d="M35.687,95.094c0-6.749,4.344-11.249,11.094-11.249s11.016,4.577,11.016,11.249
		c0,6.749-4.267,11.249-11.016,11.249S35.687,101.843,35.687,95.094z M50.116,95.094c0-3.724-1.164-6.051-3.491-6.051
		s-3.413,2.327-3.413,6.051s1.086,6.129,3.413,6.129C48.953,101.145,50.116,98.817,50.116,95.094z"/>
	<path fill="#E6E6E9" d="M58.65,95.094c0-6.749,4.344-11.249,11.094-11.249s10.939,4.5,10.939,11.249s-4.267,11.249-11.016,11.249
		C62.995,106.343,58.65,101.843,58.65,95.094z M73.08,95.094c0-3.724-1.164-6.051-3.491-6.051c-2.327,0-3.413,2.327-3.413,6.051
		s1.086,6.129,3.413,6.129C71.916,101.145,73.08,98.817,73.08,95.094z"/>
	<path fill="#E6E6E9" d="M82.234,84.388h7.137v3.181h0.155c1.396-2.483,3.336-3.801,6.439-3.801c2.715,0,4.732,1.319,5.741,3.646
		h0.155c1.707-2.793,3.957-3.646,6.594-3.646c4.965,0,7.06,3.646,7.06,8.534v13.344h-7.448V93.62c0-2.172-0.698-3.569-2.56-3.569
		c-1.862,0-2.793,1.707-2.793,4.034v11.559h-7.448V93.62c0-2.172-0.698-3.569-2.56-3.569c-1.862,0-2.793,1.707-2.793,4.034v11.559
		h-7.68V84.388z"/>
	<path fill="#E6E6E9" d="M124.903,102.852h-0.078v2.793h-7.137V75.854h7.448V86.56h0.155c1.396-1.862,3.336-2.87,6.051-2.87
		c5.353,0,8.456,4.81,8.456,11.249c0,7.215-3.336,11.404-8.922,11.404C128.549,106.343,126.144,105.257,124.903,102.852z
		 M132.118,94.861c0-3.413-1.241-5.663-3.491-5.663c-2.327,0-3.724,2.25-3.724,5.663s1.474,5.663,3.724,5.663
		C130.877,100.524,132.118,98.352,132.118,94.861z"/>
	<path fill="#E6E6E9" d="M140.652,95.016c0-6.672,4.422-11.249,10.784-11.249c3.181,0,5.586,1.009,7.448,2.793
		c2.483,2.405,3.569,6.129,3.491,10.473h-14.275c0.31,2.638,1.552,4.034,3.801,4.034c1.319,0,2.483-0.621,2.948-2.017h7.215
		c-1.241,4.888-5.043,7.292-10.396,7.292C145.074,106.265,140.652,101.765,140.652,95.016z M148.099,92.766h6.827
		c-0.155-2.56-1.552-3.879-3.336-3.879C149.496,88.81,148.332,90.284,148.099,92.766z"/>
	<path fill="#E6E6E9" d="M170.83,88.034h0.155c1.552-2.948,3.569-4.112,6.129-4.112c0.621,0,1.009,0.078,1.241,0.233v6.517H178.2
		c-4.422-0.776-6.982,1.319-6.982,6.129v8.922h-7.525V84.388h7.137V88.034z"/>
	<path fill="#E6E6E9" d="M179.131,105.722h7.215c0.31,0.931,1.241,1.784,3.026,1.784c2.405,0,3.258-1.474,3.258-3.724v-1.552h-0.155
		c-1.164,1.396-2.793,2.405-5.12,2.405c-4.577,0-8.611-3.414-8.611-10.085c0-6.129,3.258-10.861,8.223-10.861
		c2.87,0,4.577,1.164,5.741,2.948h0.155V84.31H200v18.464c0,3.414-1.164,6.051-2.948,7.603c-1.862,1.629-4.5,2.327-7.525,2.327
		C183.786,112.782,179.829,110.454,179.131,105.722z M192.94,94.24c0-2.638-1.241-4.81-3.413-4.81c-2.095,0-3.413,1.862-3.413,4.81
		c0,2.87,1.319,4.888,3.413,4.888S192.94,97.033,192.94,94.24z"/>
</g>
</svg>
