<?xml version="1.0" encoding="utf-8"?>
<!-- Generator: Adobe Illustrator 17.0.0, SVG Export Plug-In . SVG Version: 6.00 Build 0)  -->
<!DOCTYPE svg PUBLIC "-//W3C//DTD SVG 1.1//EN" "http://www.w3.org/Graphics/SVG/1.1/DTD/svg11.dtd">
<svg version="1.1" id="Layer_1" xmlns="http://www.w3.org/2000/svg" xmlns:xlink="http://www.w3.org/1999/xlink" x="0px" y="0px"
	 width="98.761px" height="147.36px" viewBox="50.519 6.4 98.761 147.36" enable-background="new 50.519 6.4 98.761 147.36"
	 xml:space="preserve">
<path fill="#BEBEBE" d="M100.64,43.84c8.64,0.16,19.2,3.36,22.88,10.24c1.92,3.52,6.24,4.8,9.76,2.88l8.48-4.48
	c3.52-1.92,4.8-6.24,2.88-9.76c-5.92-11.2-17.12-18.72-31.68-21.28V13.6c0-4-3.2-7.2-7.2-7.2h-9.44c-4,0-7.2,3.2-7.2,7.2v7.84
	C71.2,24.48,53.28,34.72,53.76,56c0.64,26.88,27.2,31.36,44.8,34.24c17.44,3.2,26.24,6.08,26.08,13.12c0,11.2-18.24,12.16-24,12.16
	c-10.08,0-23.36-3.2-27.68-12c-0.8-1.76-2.4-3.04-4.16-3.68c-1.76-0.64-3.84-0.48-5.6,0.48l-8.8,4.48c-3.52,1.76-4.8,6.08-3.2,9.6
	c6.4,13.12,20.32,22.08,37.76,24.48v7.68c0,4,3.2,7.2,7.2,7.2h9.28c4,0,7.2-3.2,7.2-7.2v-7.84c19.04-3.04,36.48-14.4,36.64-35.04
	c0-28.8-28.32-33.76-47.2-36.96c-20.16-3.52-24.16-6.56-24.16-11.04c0-2.24,0.64-4,2.08-5.6C83.84,46.24,91.84,43.84,100.64,43.84z"
	/>
<text transform="matrix(1 0 0 1 19.9997 184.0002)" font-family="'Arial-BoldMT'" font-size="8">Created by Bohdan Burmich</text>
<text transform="matrix(1 0 0 1 19.9997 192.0002)" font-family="'Arial-BoldMT'" font-size="8">from the Noun Project</text>
</svg>
